<?xml version="1.0" encoding="UTF-8" standalone="no"?>
<!DOCTYPE svg PUBLIC "-//W3C//DTD SVG 1.1//EN" "http://www.w3.org/Graphics/SVG/1.1/DTD/svg11.dtd">
<svg width="100%" height="100%" viewBox="0 0 128 128" version="1.1" xmlns="http://www.w3.org/2000/svg"
     xmlns:xlink="http://www.w3.org/1999/xlink" xml:space="preserve" xmlns:serif="http://www.serif.com/"
     style="fill-rule:evenodd;clip-rule:evenodd;stroke-linejoin:round;stroke-miterlimit:2;">
    <path id="Rahmen"
          d="M114,34.15L114,93.85C114,97.796 110.796,101 106.85,101L21.15,101C17.204,101 14,97.796 14,93.85L14,34.15C14,30.204 17.204,27 21.15,27L106.85,27C110.796,27 114,30.204 114,34.15Z"
          style="fill:#fff;"/>
    <path id="Himmel"
          d="M18,89L18,37C18,33.481 20.402,31 24,31L104,31C107.598,31 110,33.481 110,37L110,73L92.622,55C92.622,55 88.533,51 86.489,51C84.444,51 80.356,55 80.356,55L59.911,75L51.733,67C51.733,67 47.644,63 45.6,63C43.556,63 39.467,67 39.467,67L18,89Z"
          style="fill:#42b7eb;"/>
    <path id="Berge"
          d="M110,73L110,91C110,94.519 107.598,97 104,97L24,97C20.402,97 18,94.519 18,91L18,89L39.467,67C39.467,67 43.556,63 45.6,63C47.644,63 51.733,67 51.733,67L59.911,75L80.356,55C80.356,55 84.444,51 86.489,51C88.533,51 92.622,55 92.622,55L110,73Z"
          style="fill:#409568;"/>
    <circle id="Sonne" cx="36" cy="47" r="10" style="fill:#ffcb3d;"/>
    <path d="M84,31L90,31L84,45L78,49L74,57L66,63L62,75L58,79L50,97L48,97L54,77L58,74L62,60L68,55L72,47L80,41L84,31Z"
          style="fill:#fff;"/>
    <circle id="Hintergrund-Kreis" serif:id="Hintergrund Kreis" cx="100" cy="86" r="24" style="fill:#fff;"/>
    <path
        d="M111.062,102.661C107.893,104.77 104.089,106 100,106C88.962,106 80,97.038 80,86C80,74.962 88.962,66 100,66C111.038,66 120,74.962 120,86C120,90.059 118.788,93.837 116.707,96.993L107.611,87.897C109.375,83.868 108.609,78.995 105.314,75.7C102.293,72.68 97.948,71.784 94.142,73.014L100.364,79.235C101.339,80.211 102.047,81.795 101.071,82.771L96.828,87.014C95.853,87.989 94.268,87.282 93.293,86.307L86.929,79.943C85.699,83.749 86.737,88.236 89.757,91.256C93.052,94.552 97.925,95.317 101.954,93.554L111.062,102.661Z"
        style="fill:#2778af;"/>
    <g>
        <path
            d="M111.062,102.661L101.954,93.554C97.925,95.317 93.052,94.552 89.757,91.256C86.737,88.236 85.699,83.749 86.929,79.943L93.293,86.307C94.268,87.282 95.853,87.989 96.828,87.014L101.071,82.771C102.047,81.795 101.339,80.211 100.364,79.235L94.142,73.014C97.948,71.784 102.293,72.68 105.314,75.7C108.609,78.995 109.375,83.868 107.611,87.897L116.707,96.993C116.335,97.557 115.935,98.101 115.509,98.623L107.435,90.549C106.654,89.769 105.387,89.769 104.606,90.549C103.826,91.33 103.826,92.597 104.606,93.378L112.686,101.457C112.166,101.885 111.624,102.287 111.062,102.661Z"
            style="fill:#cacbc7;"/>
        <path
            d="M115.509,98.623C114.665,99.659 113.719,100.609 112.686,101.457L104.606,93.378C103.826,92.597 103.826,91.33 104.606,90.549C105.387,89.769 106.654,89.769 107.435,90.549L115.509,98.623Z"
            style="fill:#b3b4b5;"/>
    </g>
</svg>
